<svg width="28" height="32" viewBox="0 0 28 32" fill="none" xmlns="http://www.w3.org/2000/svg">
<path d="M7.03074 24.2141C7.42891 26.2957 8.29076 27.9815 9.61629 29.2717C11.5109 31.0906 14.0751 32 17.3086 32C20.4916 32 22.942 31.1158 24.6599 29.3475C26.403 27.5791 27.2745 25.1666 27.2745 22.1099V21.5794H23.2199V22.2236C23.2199 23.9919 22.7273 25.4571 21.7421 26.6192C20.7821 27.756 19.3043 28.3244 17.3086 28.3244C15.2876 28.3244 13.7088 27.7054 12.572 26.4676C11.4352 25.2298 10.8668 23.5372 10.8668 21.3899V18.934L7.03074 24.2141Z" fill="#23262F"/>
<path d="M21.0502 4.91683L18.6721 8.19018C19.9922 8.39934 21.0155 8.93415 21.7421 9.79462C22.7273 10.9314 23.2199 12.3966 23.2199 14.1902V14.5313H27.2745V14.3039C27.2745 11.2472 26.403 8.83466 24.6599 7.06631C23.6901 6.06805 22.4869 5.35155 21.0502 4.91683Z" fill="#23262F"/>
<path d="M0 32L23.2494 0H24.6133L1.36394 32H0Z" fill="#23262F"/>
</svg>
